<svg width="202" height="202" viewBox="0 0 202 202" fill="none" xmlns="http://www.w3.org/2000/svg">
<mask id="mask0_567_3459" style="mask-type:alpha" maskUnits="userSpaceOnUse" x="13" y="13" width="176" height="175">
<path fill-rule="evenodd" clip-rule="evenodd" d="M187.015 113.977C194.202 66.4694 161.516 22.1296 114.008 14.9419C133.388 17.8739 151.931 60.4604 158.781 81.3872C161.817 90.3275 162.817 100.108 161.307 110.088L187.015 113.977Z" fill="#055CC3"/>
<path d="M14.9725 87.9483C7.78474 135.456 40.4708 179.796 87.979 186.984C135.487 194.172 179.827 161.486 187.015 113.977L161.307 110.088C156.267 143.398 125.179 166.316 91.8684 161.277C58.5581 156.237 35.6402 125.148 40.6799 91.8377C45.7196 58.5274 76.8084 35.6096 110.119 40.6493C133.449 44.1791 151.681 60.4872 158.781 81.3872C151.931 60.4604 133.388 17.8739 114.008 14.9419C66.5 7.7541 22.1603 40.4402 14.9725 87.9483Z" fill="#055CC3"/>
</mask>
<g mask="url(#mask0_567_3459)">
<g filter="url(#filter0_f_567_3459)">
<path fill-rule="evenodd" clip-rule="evenodd" d="M187.022 114.014C194.21 66.506 161.524 22.1662 114.016 14.9785C133.395 17.9105 151.939 60.497 158.788 81.4238C161.825 90.3641 162.825 100.145 161.315 110.125L187.022 114.014Z" fill="#055CC3"/>
<path fill-rule="evenodd" clip-rule="evenodd" d="M37.3394 160.296C70.0878 195.456 125.139 197.411 160.298 164.663C145.956 178.022 101.069 166.078 80.4187 158.436C71.5275 155.258 63.2444 149.962 56.365 142.576L37.3394 160.296Z" fill="#022C81"/>
<path fill-rule="evenodd" clip-rule="evenodd" d="M37.3394 168.296C70.0878 203.456 125.139 205.411 160.298 172.663C145.956 186.022 101.069 174.078 80.4187 166.436C71.5275 163.258 63.2444 157.962 56.365 150.576L37.3394 168.296Z" fill="#022C81"/>
<path fill-rule="evenodd" clip-rule="evenodd" d="M37.3394 144.296C70.0878 179.456 125.139 181.411 160.298 148.663C145.956 162.022 101.069 150.078 80.4187 142.436C71.5275 139.258 63.2444 133.962 56.365 126.576L37.3394 144.296Z" fill="#022C81"/>
<path fill-rule="evenodd" clip-rule="evenodd" d="M15.2485 86.3228C7.14254 133.683 38.9642 178.647 86.3243 186.753C67.0053 183.446 49.2895 140.509 42.8464 119.454C39.9832 110.456 39.1731 100.658 40.8759 90.7091L15.2485 86.3228Z" fill="#033490"/>
<path fill-rule="evenodd" clip-rule="evenodd" d="M7.24855 86.3228C-0.857464 133.683 30.9642 178.647 78.3243 186.753C59.0053 183.446 41.2895 140.509 34.8464 119.454C31.9832 110.456 31.1731 100.658 32.8759 90.7091L7.24855 86.3228Z" fill="#033490"/>
<path fill-rule="evenodd" clip-rule="evenodd" d="M50.7468 29.9852C11.5264 57.742 2.23326 112.038 29.9901 151.258C18.6675 135.26 36.502 92.3712 46.8345 72.9268C51.1721 64.5401 57.5275 57.0389 65.7665 51.2081L50.7468 29.9852Z" fill="#033CA4"/>
<path fill-rule="evenodd" clip-rule="evenodd" d="M70.8385 19.3971C25.7705 36.0571 2.74121 86.0976 19.4012 131.166C12.6053 112.782 40.9324 75.9705 55.9454 59.8629C62.3058 52.8846 70.3861 47.2839 79.8535 43.7842L70.8385 19.3971Z" fill="#084CC7"/>
<path fill-rule="evenodd" clip-rule="evenodd" d="M78.8385 19.3971C33.7705 36.0571 10.7412 86.0976 27.4012 131.166C20.6053 112.782 48.9324 75.9705 63.9454 59.8629C70.3058 52.8846 78.3861 47.2839 87.8535 43.7842L78.8385 19.3971Z" fill="#084CC7"/>
<path fill-rule="evenodd" clip-rule="evenodd" d="M62.8385 19.3976C17.7705 36.0576 -5.25879 86.0981 11.4012 131.166C4.6053 112.782 32.9324 75.971 47.9454 59.8634C54.3058 52.8851 62.3861 47.2844 71.8535 43.7847L62.8385 19.3976Z" fill="#084CC7"/>
<path fill-rule="evenodd" clip-rule="evenodd" d="M105.154 14.0989C57.1599 11.8053 16.3937 48.8527 14.1 96.8467C15.0357 77.2691 55.5035 54.4693 75.6205 45.5166C84.2035 41.5817 93.8307 39.5875 103.913 40.0693L105.154 14.0989Z" fill="#26A2FF"/>
<path fill-rule="evenodd" clip-rule="evenodd" d="M140.128 23.2958C97.2128 1.6857 44.905 18.9567 23.2949 61.8716C32.1101 44.3658 78.3522 39.9902 100.371 39.9906C109.813 39.8856 119.419 41.9782 128.434 46.5178L140.128 23.2958Z" fill="#37C3FE"/>
<path fill-rule="evenodd" clip-rule="evenodd" d="M144.503 25.6558C102.892 1.63137 49.6836 15.8885 25.6592 57.5C35.4592 40.5259 81.8757 38.7969 103.859 40.0541C113.291 40.4882 122.762 43.1256 131.503 48.1724L144.503 25.6558Z" fill="#3AC4FD"/>
<path fill-rule="evenodd" clip-rule="evenodd" d="M144.503 25.6558C102.892 1.63137 49.6836 15.8885 25.6592 57.5C35.4592 40.5259 81.8757 38.7969 103.859 40.0541C113.291 40.4882 122.762 43.1256 131.503 48.1724L144.503 25.6558Z" fill="#3AC4FD"/>
<path fill-rule="evenodd" clip-rule="evenodd" d="M145.027 25.9603C103.584 1.64677 50.2774 15.5331 25.9639 56.9762C35.8818 40.0708 82.3092 38.665 104.283 40.0753C113.712 40.5751 123.165 43.2784 131.87 48.3859L145.027 25.9603Z" fill="#39CBFF"/>
<path fill-rule="evenodd" clip-rule="evenodd" d="M145.027 17.9603C103.584 -6.35323 50.2774 7.53307 25.9639 48.9762C35.8818 32.0708 82.3092 30.665 104.283 32.0753C113.712 32.5751 123.165 35.2784 131.87 40.3859L145.027 17.9603Z" fill="#39CBFF"/>
<path fill-rule="evenodd" clip-rule="evenodd" d="M162.518 162.518C196.494 128.542 196.494 73.4569 162.518 39.4813C176.378 53.3406 166.034 98.6229 159.13 119.532C156.27 128.53 151.271 136.996 144.134 144.133L162.518 162.518Z" fill="#044DAE"/>
<path fill-rule="evenodd" clip-rule="evenodd" d="M184.278 126.181C198.185 80.1884 172.174 31.6307 126.182 17.724C144.943 23.3968 157.207 68.1972 160.994 89.8882C162.721 99.1709 162.312 108.994 159.391 118.656L184.278 126.181Z" fill="#0581F2"/>
<path fill-rule="evenodd" clip-rule="evenodd" d="M187.956 103.769C189.485 55.7442 151.793 15.5731 103.769 14.044C123.359 14.6678 146.8 54.7674 156.072 74.7393C160.143 83.2586 162.291 92.8528 161.969 102.941L187.956 103.769Z" fill="#159FFD"/>
<path fill-rule="evenodd" clip-rule="evenodd" d="M185.712 81.1674C174.759 34.3836 127.954 5.33664 81.1705 16.2893C100.254 11.8215 133.276 44.4877 147.401 61.3793C153.538 68.5547 158.095 77.2662 160.396 87.094L185.712 81.1674Z" fill="#21ADFE"/>
<path fill-rule="evenodd" clip-rule="evenodd" d="M177.402 59.3861C154.42 17.1901 101.583 1.61439 59.3868 24.5967C76.5993 15.2218 117.109 37.9469 135.212 50.4814C143.035 55.7695 149.742 62.9581 154.57 71.8222L177.402 59.3861Z" fill="#46D7FD"/>
<path fill-rule="evenodd" clip-rule="evenodd" d="M164.03 41.0307C130.91 6.2208 75.8417 4.85114 41.0318 37.9715C55.2314 24.4611 100.243 35.9272 120.973 43.349C129.898 46.4324 138.237 51.6402 145.194 58.9527L164.03 41.0307Z" fill="#39CCFF"/>
<path fill-rule="evenodd" clip-rule="evenodd" d="M101 188C149.049 188 188 149.048 188 101C188 120.6 148.667 145.305 129 155.208C120.615 159.548 111.094 162 101 162L101 188Z" fill="#01256B"/>
<path fill-rule="evenodd" clip-rule="evenodd" d="M130.406 182.878C175.626 166.635 199.116 116.809 182.873 71.5893C189.499 90.0354 160.833 126.583 145.672 142.551C139.247 149.471 131.116 154.996 121.616 158.408L130.406 182.878Z" fill="#011755"/>
<path fill-rule="evenodd" clip-rule="evenodd" d="M130.406 165.878C175.626 149.635 199.116 99.8094 182.873 54.5893C189.499 73.0354 160.833 109.583 145.672 125.551C139.247 132.471 131.116 137.996 121.616 141.408L130.406 165.878Z" fill="#011755"/>
</g>
<g filter="url(#filter1_f_567_3459)">
<path fill-rule="evenodd" clip-rule="evenodd" d="M52.1615 60.9797C31.9176 85.3528 35.2649 121.522 59.6381 141.766C49.6958 133.508 53.7357 103.147 56.9984 88.9987C58.3298 82.9165 61.0976 77.054 65.3502 71.934L52.1615 60.9797Z" fill="#1778F3"/>
<path d="M140.425 134.289C160.668 109.916 157.321 73.747 132.948 53.503C108.575 33.2591 72.4054 36.6065 52.1615 60.9797L65.3502 71.934C79.5443 54.8448 104.904 52.4977 121.994 66.6918C139.083 80.8858 141.43 106.246 127.236 123.335C113.042 140.424 87.6817 142.771 70.5924 128.577C58.6233 118.636 53.8859 103.217 56.9984 88.9987C53.7357 103.147 49.6958 133.508 59.6381 141.766C84.0113 162.01 120.181 158.663 140.425 134.289Z" fill="#1778F3"/>
</g>
</g>
<mask id="mask1_567_3459" style="mask-type:alpha" maskUnits="userSpaceOnUse" x="13" y="14" width="186" height="180">
<path fill-rule="evenodd" clip-rule="evenodd" d="M150.59 175.234C149.577 176.021 148.547 176.785 147.5 177.526C152.32 181.788 158.943 185.289 166 187.016C158.414 182.349 154.403 179.141 150.59 175.234Z" fill="#FF0000"/>
<path d="M199 175.519C199 175.519 187.661 181.939 180 181.519C173.649 181.171 169.359 178.909 164.5 175.519C162.049 173.809 159.639 171.49 157.55 169.208C155.335 171.339 153.012 173.351 150.59 175.234C154.403 179.141 158.414 182.349 166 187.016C177.977 189.948 191.205 187.769 199 175.519Z" fill="#FF0000"/>
<path fill-rule="evenodd" clip-rule="evenodd" d="M13 104.019L37 96.5191C37.3101 85.5095 40.8146 75.1278 46.5101 66.2513C59.1796 46.506 82.6909 34.2092 106 39.0191C108.429 39.5202 110.762 40.115 113 40.7997C137.947 48.4328 151 67.2417 151 92.0192C151 111.039 132 134.11 113 131.519C107.415 130.758 103.549 126.868 101.171 123.019C99.802 120.804 98.5 117.019 98.5 117.019C93.9997 128.019 99.3292 135.519 100.5 137.019C102.937 140.142 108 145.019 108 145.019L131 163.519L147.5 177.526C148.547 176.785 149.577 176.021 150.59 175.234C153.012 173.351 155.335 171.339 157.55 169.208C153.744 165.052 151 161.019 151 161.019C151 161.019 163.234 151.448 169 143.519C177 132.519 182.523 121.429 185 105.519C185.693 101.065 186 94.0191 186 94.0191C186 54.566 156.059 22.5206 118 15.4536C113.437 14.6064 108.758 14.1181 104 14.0191C75.2318 13.4207 49.3448 26.9024 32.6039 48C20.353 63.439 13 82.9565 13 104.019Z" fill="#FF0000"/>
<path d="M106 39.0191C82.6909 34.2092 59.1796 46.506 46.5101 66.2513L49 69.5191C66.2 39.5345 98.8333 37.8793 113 40.7997C110.762 40.115 108.429 39.5202 106 39.0191Z" fill="#FF0000"/>
</mask>
<g mask="url(#mask1_567_3459)">
<g filter="url(#filter2_f_567_3459)">
<path fill-rule="evenodd" clip-rule="evenodd" d="M145.227 195.482C196.885 144.401 197.353 61.114 146.272 9.45578C167.109 30.5281 151.086 98.9052 140.469 130.46C136.068 144.041 128.438 156.798 117.586 167.529L145.227 195.482Z" fill="#044DAE"/>
<path fill-rule="evenodd" clip-rule="evenodd" d="M113.219 195.482C164.877 144.401 165.345 61.1145 114.264 9.45627C135.101 30.5286 119.078 98.9057 108.461 130.46C104.06 144.041 96.4301 156.799 85.5783 167.529L113.219 195.482Z" fill="#044DAE"/>
<path fill-rule="evenodd" clip-rule="evenodd" d="M161.196 195.483C212.854 144.402 213.322 61.1155 162.241 9.45724C183.078 30.5296 167.054 98.9067 156.438 130.461C152.037 144.042 144.407 156.8 133.555 167.53L161.196 195.483Z" fill="#044DAE"/>
<path fill-rule="evenodd" clip-rule="evenodd" d="M178.431 140.726C199.848 71.3058 160.934 -2.33226 91.5136 -23.7492C119.831 -15.0128 137.993 52.8275 143.535 85.6557C146.068 99.7054 145.366 114.554 140.867 129.137L178.431 140.726Z" fill="#0581F2"/>
<path fill-rule="evenodd" clip-rule="evenodd" d="M184.187 106.872C186.906 34.2743 130.259 -26.7828 57.6613 -29.5027C87.2753 -28.3932 122.377 32.4348 136.226 62.7102C142.309 75.6256 145.474 90.1498 144.903 105.4L184.187 106.872Z" fill="#159FFD"/>
<path fill-rule="evenodd" clip-rule="evenodd" d="M181.974 72.6811C165.811 1.85298 95.2912 -42.4623 24.4631 -26.2998C53.3552 -32.8928 103.004 16.7776 124.217 42.437C133.436 53.338 140.252 66.5481 143.647 81.4269L181.974 72.6811Z" fill="#21ADFE"/>
<path fill-rule="evenodd" clip-rule="evenodd" d="M189.974 72.6816C173.811 1.85346 103.291 -42.4618 32.4631 -26.2993C61.3552 -32.8923 111.004 16.7781 132.217 42.4375C141.436 53.3384 148.252 66.5486 151.647 81.4274L189.974 72.6816Z" fill="#21ADFE"/>
<path fill-rule="evenodd" clip-rule="evenodd" d="M161.24 47.7122C126.85 -16.2814 47.0941 -40.28 -16.8996 -5.8902C9.20465 -19.9185 70.2607 14.7851 97.5257 33.8904C109.308 41.9522 119.387 52.8781 126.611 66.3212L161.24 47.7122Z" fill="#46D7FD"/>
</g>
<g style="mix-blend-mode:hard-light" filter="url(#filter3_f_567_3459)">
<path d="M147.959 171.464C136.31 158.459 119.957 145.24 114.5 141.813C120.592 137.244 134.011 144.744 143.39 153.235C149.416 158.69 155 175.309 175 184.5C165.5 181.5 156.5 181 147.959 171.464Z" fill="#0CAFFD"/>
</g>
<g style="mix-blend-mode:hard-light" filter="url(#filter4_f_567_3459)">
<path d="M159.783 184.254C149.436 178.409 135.868 168.475 135 167C125.671 156.158 122.21 153.776 109.5 147.5C95.0001 140.34 93.5 121 93.5 121C94.5478 120.214 100 140.5 108 143.5C117.801 147.175 122.624 151.204 130.39 158.235C134.851 162.273 148.388 176.92 159.783 184.254C163.244 186.209 166.344 187.707 168.488 188.278C169.19 188.423 169.862 188.5 170.5 188.5C169.992 188.58 169.311 188.497 168.488 188.278C165.906 187.744 162.926 186.277 159.783 184.254Z" fill="#0CAFFD"/>
</g>
</g>
<g style="mix-blend-mode:hard-light">
<mask id="mask2_567_3459" style="mask-type:alpha" maskUnits="userSpaceOnUse" x="13" y="14" width="186" height="180">
<path fill-rule="evenodd" clip-rule="evenodd" d="M150.59 175.234C149.577 176.021 148.547 176.785 147.5 177.526C152.32 181.788 158.943 185.289 166 187.016C158.414 182.349 154.403 179.141 150.59 175.234Z" fill="#FF0000"/>
<path d="M199 175.519C199 175.519 187.661 181.939 180 181.519C173.649 181.171 169.359 178.909 164.5 175.519C162.049 173.809 159.639 171.49 157.55 169.208C155.335 171.339 153.012 173.351 150.59 175.234C154.403 179.141 158.414 182.349 166 187.016C177.977 189.948 191.205 187.769 199 175.519Z" fill="#FF0000"/>
<path d="M13 104.019C13 153.172 51.5035 193.019 99 193.019C116.992 193.019 133.693 187.302 147.5 177.526L131 163.519C102 175.519 37 169.019 37 96.5191L13 104.019Z" fill="#FF0000"/>
<path d="M103 130.5C109 137.5 125.5 141.5 139.5 135.019C150.309 130.015 159.502 118.798 163.5 104.019C167.498 89.2399 161.54 70.5191 155 60.0191C146.1 45.7298 134 37.4487 121 33.5191C117.567 32.4814 113.785 31.7825 109.867 31.4264C98.9464 30.4341 86.9631 32.1036 78.5 36.5191C71.1667 39.3588 54.8 50.1345 48 70.5191C52.5534 63 57 58.0909 62 54C70.129 47.349 78.184 44 82.2001 42.8587C90.5 40.5 106 37.5 119 42.8587C138.75 51 151 68 151 92.0192C151 110.5 132 134.11 113 131.519C107.415 130.758 103.549 126.868 101.171 123.019C99.802 120.804 98.5 117.019 98.5 117.019C99 128.5 102.569 129.998 103 130.5Z" fill="#FF0000"/>
</mask>
<g mask="url(#mask2_567_3459)">
<g filter="url(#filter5_f_567_3459)">
<g filter="url(#filter6_f_567_3459)">
<path d="M111 137.019C121.995 141.6 130.505 141.6 141.5 137.019C152.495 132.437 161.502 120.798 165.5 106.019C169.498 91.2398 163.54 72.519 157 62.019C148.1 47.7297 136 39.4486 123 35.519C119.567 34.4813 115.785 33.7824 111.867 33.4263C100.946 32.434 88.9631 34.1035 80.5 38.519C64.095 47.0781 58.2296 54.7072 50.5 71.519" stroke="#0CAFFD" stroke-width="10" stroke-linecap="round" stroke-linejoin="bevel"/>
</g>
<g filter="url(#filter7_f_567_3459)">
<path d="M109 136.019C119.995 140.6 128.505 140.6 139.5 136.019C150.495 131.437 159.502 119.798 163.5 105.019C167.498 90.2398 161.54 71.519 155 61.019C146.1 46.7297 134 38.4486 121 34.519C117.567 33.4813 113.785 32.7824 109.867 32.4263C98.9464 31.434 86.9631 33.1035 78.5 37.519C62.095 46.0781 56.2296 53.7072 48.5 70.519" stroke="#0CAFFD" stroke-width="4" stroke-linecap="round" stroke-linejoin="bevel"/>
</g>
<g filter="url(#filter8_f_567_3459)">
<path d="M109 136.019C119.995 140.6 128.505 140.6 139.5 136.019C150.495 131.437 159.502 119.798 163.5 105.019C167.498 90.2398 161.54 71.519 155 61.019C146.1 46.7297 134 38.4486 121 34.519C117.567 33.4813 113.785 32.7824 109.867 32.4263C98.9464 31.434 86.9631 33.1035 78.5 37.519C62.095 46.0781 56.2296 53.7072 48.5 70.519" stroke="#0CAFFD" stroke-width="2" stroke-linecap="round" stroke-linejoin="bevel"/>
</g>
</g>
</g>
</g>
<mask id="mask3_567_3459" style="mask-type:alpha" maskUnits="userSpaceOnUse" x="48" y="31" width="117" height="108">
<path opacity="0.4" d="M109 135.019C119.995 139.6 128.505 139.6 139.5 135.019C150.495 130.437 159.502 118.798 163.5 104.019C167.498 89.2398 161.54 70.519 155 60.019C146.1 45.7297 134 37.4486 121 33.519C117.567 32.4813 113.785 31.7824 109.867 31.4263C98.9464 30.434 86.9631 32.1035 78.5 36.519C62.095 45.0781 56.2296 52.7072 48.5 69.519C58.5 54 71.3846 45.4476 85.5 42C101.5 38.0921 112.5 40.7132 115.5 41.6156C136.5 47.9323 151 66.5 151 92.0191C151 111.039 132 134.11 113 131.519C107.415 130.757 103.549 126.867 101.171 123.019C99.802 120.804 98.5 117.019 98.5 117.019C98.5 117.019 98.6599 124.642 101.171 128.5C103.341 131.835 109 135.019 109 135.019Z" fill="#D9D9D9"/>
</mask>
<g mask="url(#mask3_567_3459)">
<g filter="url(#filter9_f_567_3459)">
<path fill-rule="evenodd" clip-rule="evenodd" d="M96.5055 135.709C130.308 135.709 157.71 108.307 157.71 74.5043C157.71 88.2929 130.039 105.673 116.204 112.64C110.304 115.693 103.606 117.418 96.5055 117.418L96.5055 135.709Z" fill="#011C60"/>
<path fill-rule="evenodd" clip-rule="evenodd" d="M75.457 36.635C45.7069 52.6829 34.5991 89.8096 50.647 119.56C44.1008 107.424 60.2031 78.9902 69.0725 66.2902C72.8149 60.8023 77.8912 56.1044 84.1408 52.7333L75.457 36.635Z" fill="#0D67DF"/>
<path fill-rule="evenodd" clip-rule="evenodd" d="M140.354 40.8929C112.955 21.0966 74.6959 27.2599 54.8996 54.659C62.9749 43.4824 95.583 45.5999 110.878 48.0557C117.447 49.0357 123.887 51.5605 129.642 55.719L140.354 40.8929Z" fill="#0D61DB"/>
<path fill-rule="evenodd" clip-rule="evenodd" d="M164.837 100.828C170.54 67.5105 148.153 35.8781 114.835 30.1755C128.426 32.5017 140.889 62.7083 145.422 77.5208C147.436 83.8506 148.006 90.7435 146.808 97.7426L164.837 100.828Z" fill="#0965D9"/>
<path fill-rule="evenodd" clip-rule="evenodd" d="M165.605 86.8309C163.577 53.0894 134.58 27.3806 100.839 29.4086C114.602 28.5813 133.612 55.1598 141.396 68.5524C144.798 74.2578 146.921 80.8403 147.347 87.9283L165.605 86.8309Z" fill="#0553BE"/>
<path fill-rule="evenodd" clip-rule="evenodd" d="M151.594 129.608C173.192 103.605 169.62 65.0175 143.618 43.4199C154.225 52.23 149.915 84.6212 146.434 99.7156C145.013 106.204 142.06 112.459 137.524 117.921L151.594 129.608Z" fill="#0965D8"/>
<path fill-rule="evenodd" clip-rule="evenodd" d="M104.505 151.709C138.308 151.709 165.71 124.307 165.71 90.5043C165.71 104.293 138.039 121.673 124.204 128.64C118.304 131.693 111.606 133.418 104.505 133.418L104.505 151.709Z" fill="#022F83"/>
</g>
<g filter="url(#filter10_f_567_3459)">
<path fill-rule="evenodd" clip-rule="evenodd" d="M95.4937 152.709C129.296 152.709 156.698 125.307 156.698 91.5043C156.698 105.293 129.027 122.673 115.192 129.64C109.293 132.693 102.595 134.418 95.4937 134.418L95.4937 152.709Z" fill="#022F83"/>
<path d="M95.4937 30.2996C61.6913 30.2996 34.2891 57.7019 34.2891 91.5043C34.2891 125.307 61.6913 152.709 95.4937 152.709L95.4937 134.418C71.7932 134.418 52.5801 115.205 52.5801 91.5043C52.5801 67.8038 71.7932 48.5907 95.4937 48.5907C119.194 48.5907 138.407 67.8038 138.407 91.5043C138.407 108.104 128.982 122.502 115.192 129.64C129.027 122.673 156.698 105.293 156.698 91.5043C156.698 57.7019 129.296 30.2996 95.4937 30.2996Z" fill="#022F83"/>
</g>
</g>
<mask id="mask4_567_3459" style="mask-type:alpha" maskUnits="userSpaceOnUse" x="48" y="30" width="117" height="108">
<path opacity="0.4" d="M108.953 134.019C119.948 138.6 128.459 138.6 139.453 134.019C150.448 129.437 159.455 117.798 163.453 103.019C167.451 88.2398 161.493 69.519 154.953 59.019C146.053 44.7297 133.953 36.4486 120.953 32.519C117.52 31.4813 113.738 30.7824 109.82 30.4263C98.8995 29.434 86.9162 31.1035 78.4531 35.519C62.0481 44.0781 56.1827 51.7072 48.4531 68.519C58.4531 53 71.3377 45.4476 85.4531 42C101.453 38.0921 112.497 40.5786 115.453 41.6156C136.503 49 150.953 65.5 150.953 91.0191C150.953 113 130.503 134.019 112.953 131.519C107.373 130.724 103.502 126.867 101.124 123.019C99.7552 120.804 98.4531 116.019 98.4531 116.019C98.4531 116.019 98.613 123.642 101.124 127.5C103.294 130.835 108.953 134.019 108.953 134.019Z" fill="#054BBA"/>
</mask>
<g mask="url(#mask4_567_3459)">
<g filter="url(#filter11_f_567_3459)">
<path d="M108.953 134.019C119.948 138.6 128.459 138.6 139.453 134.019C150.448 129.437 159.455 117.798 163.453 103.019C167.451 88.2398 161.493 69.519 154.953 59.019C146.053 44.7297 133.953 36.4486 120.953 32.519C117.52 31.4813 113.738 30.7824 109.82 30.4263C98.8995 29.434 86.9162 31.1035 78.4531 35.519C62.0481 44.0781 56.1827 51.7072 48.4531 68.519C58.4531 53 71.3377 45.4476 85.4531 42C101.453 38.0921 112.497 40.5786 115.453 41.6156C136.503 49 150.953 65.5 150.953 91.0191C150.953 113 130.503 134.019 112.953 131.519C107.373 130.724 103.502 126.867 101.124 123.019C99.7552 120.804 98.4531 116.019 98.4531 116.019C98.4531 116.019 98.613 123.642 101.124 127.5C103.294 130.835 108.953 134.019 108.953 134.019Z" fill="url(#paint0_linear_567_3459)"/>
</g>
<g filter="url(#filter12_f_567_3459)">
<path d="M158.238 90.1699C158.238 120.5 138.504 149.5 107.504 132.5C95.0039 112 144.627 124.342 145.438 88.1803C145.46 76.9535 142.504 53.1 118.504 47.5L113.004 35.5C128.082 38.6133 158.238 53.9058 158.238 90.1699Z" fill="#054BBA"/>
</g>
</g>
<mask id="mask5_567_3459" style="mask-type:alpha" maskUnits="userSpaceOnUse" x="13" y="14" width="186" height="180">
<path fill-rule="evenodd" clip-rule="evenodd" d="M150.59 175.234C149.577 176.021 148.547 176.785 147.5 177.526C152.32 181.788 158.943 185.289 166 187.016C158.414 182.349 154.403 179.141 150.59 175.234Z" fill="#FF0000"/>
<path d="M199 175.519C199 175.519 187.661 181.939 180 181.519C173.649 181.171 169.359 178.909 164.5 175.519C162.049 173.809 159.639 171.49 157.55 169.208C155.335 171.339 153.012 173.351 150.59 175.234C154.403 179.141 158.414 182.349 166 187.016C177.977 189.948 191.205 187.769 199 175.519Z" fill="#FF0000"/>
<path fill-rule="evenodd" clip-rule="evenodd" d="M13 104.019L37 96.5191C37.3101 85.5095 40.8146 75.1278 46.5101 66.2513C59.1796 46.506 82.6909 34.2092 106 39.0191C108.429 39.5202 110.762 40.115 113 40.7997C137.947 48.4328 151 67.2417 151 92.0192C151 111.039 132 134.11 113 131.519C107.415 130.758 103.549 126.868 101.171 123.019C99.802 120.804 98.5 117.019 98.5 117.019C93.9997 128.019 99.3292 135.519 100.5 137.019C102.937 140.142 108 145.019 108 145.019L124 157.889L131 163.519L147.5 177.526C148.547 176.785 149.577 176.021 150.59 175.234C153.012 173.351 155.335 171.339 157.55 169.208C153.744 165.052 151 161.019 151 161.019C151 161.019 163.234 151.448 169 143.519C177 132.519 182.523 121.429 185 105.519C185.693 101.065 186 94.0191 186 94.0191C186 54.566 156.059 22.5206 118 15.4536C113.437 14.6064 108.758 14.1181 104 14.0191C75.2318 13.4207 49.3448 26.9024 32.6039 48C20.353 63.439 13 82.9565 13 104.019Z" fill="#FF0000"/>
<path d="M106 39.0191C82.6909 34.2092 59.1796 46.506 46.5101 66.2513L49 69.5191C66.2 39.5345 98.8333 37.8793 113 40.7997C110.762 40.115 108.429 39.5202 106 39.0191Z" fill="#FF0000"/>
<path d="M37 96.5191C37 169.019 102 175.519 131 163.519L124 157.889C110.333 162.759 77.3 166 54.5 140C31.7 114 41.3333 82.1794 49 69.5191L46.5101 66.2513C40.8146 75.1278 37.3101 85.5095 37 96.5191Z" fill="#FF0000"/>
<path d="M13 104.019C13 153.172 51.5035 193.019 99 193.019C116.992 193.019 133.693 187.302 147.5 177.526L131 163.519C102 175.519 37 169.019 37 96.5191L13 104.019Z" fill="#FF0000"/>
</mask>
<g mask="url(#mask5_567_3459)">
<g filter="url(#filter13_f_567_3459)">
<g opacity="0.4" filter="url(#filter14_f_567_3459)">
<path d="M109 135.019C119.995 139.6 128.505 139.6 139.5 135.019C150.495 130.437 159.502 118.798 163.5 104.019C167.498 89.2398 161.54 70.519 155 60.019C146.1 45.7297 134 37.4486 121 33.519C117.567 32.4813 113.785 31.7824 109.867 31.4263C98.9464 30.434 86.9631 32.1035 78.5 36.519C62.095 45.0781 56.2296 52.7072 48.5 69.519" stroke="#4CE6FF" stroke-width="4" stroke-linecap="round" stroke-linejoin="bevel"/>
</g>
<g opacity="0.4" filter="url(#filter15_f_567_3459)">
<path d="M109 135.019C119.995 139.6 128.505 139.6 139.5 135.019C150.495 130.437 159.502 118.798 163.5 104.019C167.498 89.2398 161.54 70.519 155 60.019C146.1 45.7297 134 37.4486 121 33.519C117.567 32.4813 113.785 31.7824 109.867 31.4263C98.9464 30.434 86.9631 32.1035 78.5 36.519C62.095 45.0781 56.2296 52.7072 48.5 69.519" stroke="#4CE6FF" stroke-width="4" stroke-linecap="round" stroke-linejoin="bevel"/>
</g>
<g opacity="0.4" filter="url(#filter16_f_567_3459)">
<path d="M109 135.019C119.995 139.6 128.505 139.6 139.5 135.019C150.495 130.437 159.502 118.798 163.5 104.019C167.498 89.2398 161.54 70.519 155 60.019C146.1 45.7297 134 37.4486 121 33.519C117.567 32.4813 113.785 31.7824 109.867 31.4263C98.9464 30.434 86.9631 32.1035 78.5 36.519C62.095 45.0781 56.2296 52.7072 48.5 69.519" stroke="#4CE6FF" stroke-width="2" stroke-linecap="round" stroke-linejoin="bevel"/>
</g>
<g opacity="0.4" filter="url(#filter17_f_567_3459)">
<path d="M109 135.019C119.995 139.6 128.505 139.6 139.5 135.019C150.495 130.437 159.502 118.798 163.5 104.019C167.498 89.2398 161.54 70.519 155 60.019C146.1 45.7297 134 37.4486 121 33.519C117.567 32.4813 113.785 31.7824 109.867 31.4263C98.9464 30.434 86.9631 32.1035 78.5 36.519C62.095 45.0781 56.2296 52.7072 48.5 69.519" stroke="#4CE6FF" stroke-linecap="round" stroke-linejoin="bevel"/>
</g>
<g opacity="0.4" filter="url(#filter18_f_567_3459)">
<path d="M109 135.019C119.995 139.6 128.505 139.6 139.5 135.019C150.495 130.437 159.502 118.798 163.5 104.019C167.498 89.2398 161.54 70.519 155 60.019C146.1 45.7297 134 37.4486 121 33.519C117.567 32.4813 113.785 31.7824 109.867 31.4263C98.9464 30.434 86.9631 32.1035 78.5 36.519C62.095 45.0781 56.2296 52.7072 48.5 69.519" stroke="#4CE6FF" stroke-width="2" stroke-linecap="round" stroke-linejoin="bevel"/>
</g>
<path opacity="0.4" d="M109 135.019C119.995 139.6 128.505 139.6 139.5 135.019C150.495 130.437 159.502 118.798 163.5 104.019C167.498 89.2398 161.54 70.519 155 60.019C146.1 45.7297 134 37.4486 121 33.519C117.567 32.4813 113.785 31.7824 109.867 31.4263C98.9464 30.434 86.9631 32.1035 78.5 36.519C62.095 45.0781 56.2296 52.7072 48.5 69.519" stroke="#C3F7FF" stroke-width="0.5" stroke-linecap="round" stroke-linejoin="bevel"/>
<g opacity="0.4" filter="url(#filter19_f_567_3459)">
<path d="M109 135.019C119.995 139.6 128.505 139.6 139.5 135.019C150.495 130.437 159.502 118.798 163.5 104.019C167.498 89.2398 161.54 70.519 155 60.019C146.1 45.7297 134 37.4486 121 33.519C117.567 32.4813 113.785 31.7824 109.867 31.4263C98.9464 30.434 86.9631 32.1035 78.5 36.519C62.095 45.0781 56.2296 52.7072 48.5 69.519" stroke="#C3F7FF" stroke-width="0.5" stroke-linecap="round" stroke-linejoin="bevel"/>
</g>
</g>
</g>
<mask id="mask6_567_3459" style="mask-type:alpha" maskUnits="userSpaceOnUse" x="13" y="14" width="186" height="180">
<path fill-rule="evenodd" clip-rule="evenodd" d="M150.59 175.234C149.577 176.021 148.547 176.785 147.5 177.526C152.32 181.788 158.943 185.289 166 187.016C158.414 182.349 154.403 179.141 150.59 175.234Z" fill="#FF0000"/>
<path d="M199 175.519C199 175.519 187.661 181.939 180 181.519C173.649 181.171 169.359 178.909 164.5 175.519C162.049 173.809 159.639 171.49 157.55 169.208C155.335 171.339 153.012 173.351 150.59 175.234C154.403 179.141 158.414 182.349 166 187.016C177.977 189.948 191.205 187.769 199 175.519Z" fill="#FF0000"/>
<path fill-rule="evenodd" clip-rule="evenodd" d="M13 104.019L37 96.5191C37.3101 85.5095 40.8146 75.1278 46.5101 66.2513C59.1796 46.506 82.6909 34.2092 106 39.0191C108.429 39.5202 110.762 40.115 113 40.7997C137.947 48.4328 151 67.2417 151 92.0192C151 111.039 132 134.11 113 131.519C107.415 130.758 103.549 126.868 101.171 123.019C99.802 120.804 98.5 117.019 98.5 117.019C93.9997 128.019 99.3292 135.519 100.5 137.019C102.937 140.142 108 145.019 108 145.019L124 157.889L131 163.519L147.5 177.526C148.547 176.785 149.577 176.021 150.59 175.234C153.012 173.351 155.335 171.339 157.55 169.208C153.744 165.052 151 161.019 151 161.019C151 161.019 163.234 151.448 169 143.519C177 132.519 182.523 121.429 185 105.519C185.693 101.065 186 94.0191 186 94.0191C186 54.566 156.059 22.5206 118 15.4536C113.437 14.6064 108.758 14.1181 104 14.0191C75.2318 13.4207 49.3448 26.9024 32.6039 48C20.353 63.439 13 82.9565 13 104.019Z" fill="#FF0000"/>
<path d="M106 39.0191C82.6909 34.2092 59.1796 46.506 46.5101 66.2513L49 69.5191C66.2 39.5345 98.8333 37.8793 113 40.7997C110.762 40.115 108.429 39.5202 106 39.0191Z" fill="#FF0000"/>
<path d="M37 96.5191C37 169.019 102 175.519 131 163.519L124 157.889C110.333 162.759 77.3 166 54.5 140C31.7 114 41.3333 82.1794 49 69.5191L46.5101 66.2513C40.8146 75.1278 37.3101 85.5095 37 96.5191Z" fill="#FF0000"/>
<path d="M13 104.019C13 153.172 51.5035 193.019 99 193.019C116.992 193.019 133.693 187.302 147.5 177.526L131 163.519C102 175.519 37 169.019 37 96.5191L13 104.019Z" fill="#FF0000"/>
</mask>
<g mask="url(#mask6_567_3459)">
<g style="mix-blend-mode:plus-lighter" filter="url(#filter20_f_567_3459)">
<path d="M109 135.019C119.995 139.6 128.505 139.6 139.5 135.019C150.495 130.437 159.502 118.798 163.5 104.019C167.498 89.2398 161.54 70.519 155 60.019C146.1 45.7297 134 37.4486 121 33.519C117.567 32.4813 113.785 31.7824 109.867 31.4263C98.9464 30.434 86.9631 32.1035 78.5 36.519C62.095 45.0781 56.2296 52.7072 48.5 69.519" stroke="url(#paint1_radial_567_3459)" stroke-width="0.25" stroke-linecap="round" stroke-linejoin="bevel"/>
</g>
</g>
<defs>
<filter id="filter0_f_567_3459" x="-8.61953" y="-17.6239" width="219.247" height="228.224" filterUnits="userSpaceOnUse" color-interpolation-filters="sRGB">
<feFlood flood-opacity="0" result="BackgroundImageFix"/>
<feBlend mode="normal" in="SourceGraphic" in2="BackgroundImageFix" result="shape"/>
<feGaussianBlur stdDeviation="7.3" result="effect1_foregroundBlur_567_3459"/>
</filter>
<filter id="filter1_f_567_3459" x="28.0219" y="29.3642" width="136.542" height="136.541" filterUnits="userSpaceOnUse" color-interpolation-filters="sRGB">
<feFlood flood-opacity="0" result="BackgroundImageFix"/>
<feBlend mode="normal" in="SourceGraphic" in2="BackgroundImageFix" result="shape"/>
<feGaussianBlur stdDeviation="5.45" result="effect1_foregroundBlur_567_3459"/>
</filter>
<filter id="filter2_f_567_3459" x="-137.383" y="-56.2009" width="364.201" height="324.32" filterUnits="userSpaceOnUse" color-interpolation-filters="sRGB">
<feFlood flood-opacity="0" result="BackgroundImageFix"/>
<feBlend mode="normal" in="SourceGraphic" in2="BackgroundImageFix" result="shape"/>
<feGaussianBlur stdDeviation="13.2855" result="effect1_foregroundBlur_567_3459"/>
</filter>
<filter id="filter3_f_567_3459" x="110.5" y="136.429" width="68.5" height="52.0713" filterUnits="userSpaceOnUse" color-interpolation-filters="sRGB">
<feFlood flood-opacity="0" result="BackgroundImageFix"/>
<feBlend mode="normal" in="SourceGraphic" in2="BackgroundImageFix" result="shape"/>
<feGaussianBlur stdDeviation="2" result="effect1_foregroundBlur_567_3459"/>
</filter>
<filter id="filter4_f_567_3459" x="89.5" y="116.978" width="85" height="75.5522" filterUnits="userSpaceOnUse" color-interpolation-filters="sRGB">
<feFlood flood-opacity="0" result="BackgroundImageFix"/>
<feBlend mode="normal" in="SourceGraphic" in2="BackgroundImageFix" result="shape"/>
<feGaussianBlur stdDeviation="2" result="effect1_foregroundBlur_567_3459"/>
</filter>
<filter id="filter5_f_567_3459" x="36.2" y="18.8499" width="144.893" height="135.905" filterUnits="userSpaceOnUse" color-interpolation-filters="sRGB">
<feFlood flood-opacity="0" result="BackgroundImageFix"/>
<feBlend mode="normal" in="SourceGraphic" in2="BackgroundImageFix" result="shape"/>
<feGaussianBlur stdDeviation="4.65" result="effect1_foregroundBlur_567_3459"/>
</filter>
<filter id="filter6_f_567_3459" x="37.5" y="20.1499" width="142.293" height="133.305" filterUnits="userSpaceOnUse" color-interpolation-filters="sRGB">
<feFlood flood-opacity="0" result="BackgroundImageFix"/>
<feBlend mode="normal" in="SourceGraphic" in2="BackgroundImageFix" result="shape"/>
<feGaussianBlur stdDeviation="4" result="effect1_foregroundBlur_567_3459"/>
</filter>
<filter id="filter7_f_567_3459" x="40.5" y="24.1494" width="132.293" height="123.306" filterUnits="userSpaceOnUse" color-interpolation-filters="sRGB">
<feFlood flood-opacity="0" result="BackgroundImageFix"/>
<feBlend mode="normal" in="SourceGraphic" in2="BackgroundImageFix" result="shape"/>
<feGaussianBlur stdDeviation="3" result="effect1_foregroundBlur_567_3459"/>
</filter>
<filter id="filter8_f_567_3459" x="43.5" y="27.1494" width="126.293" height="117.306" filterUnits="userSpaceOnUse" color-interpolation-filters="sRGB">
<feFlood flood-opacity="0" result="BackgroundImageFix"/>
<feBlend mode="normal" in="SourceGraphic" in2="BackgroundImageFix" result="shape"/>
<feGaussianBlur stdDeviation="2" result="effect1_foregroundBlur_567_3459"/>
</filter>
<filter id="filter9_f_567_3459" x="31.0008" y="8.9998" width="139.03" height="147.019" filterUnits="userSpaceOnUse" color-interpolation-filters="sRGB">
<feFlood flood-opacity="0" result="BackgroundImageFix"/>
<feBlend mode="normal" in="SourceGraphic" in2="BackgroundImageFix" result="shape"/>
<feGaussianBlur stdDeviation="2.15" result="effect1_foregroundBlur_567_3459"/>
</filter>
<filter id="filter10_f_567_3459" x="24.9891" y="20.9998" width="141.01" height="141.009" filterUnits="userSpaceOnUse" color-interpolation-filters="sRGB">
<feFlood flood-opacity="0" result="BackgroundImageFix"/>
<feBlend mode="normal" in="SourceGraphic" in2="BackgroundImageFix" result="shape"/>
<feGaussianBlur stdDeviation="4.65" result="effect1_foregroundBlur_567_3459"/>
</filter>
<filter id="filter11_f_567_3459" x="43.4531" y="25.1494" width="126.293" height="117.306" filterUnits="userSpaceOnUse" color-interpolation-filters="sRGB">
<feFlood flood-opacity="0" result="BackgroundImageFix"/>
<feBlend mode="normal" in="SourceGraphic" in2="BackgroundImageFix" result="shape"/>
<feGaussianBlur stdDeviation="2.5" result="effect1_foregroundBlur_567_3459"/>
</filter>
<filter id="filter12_f_567_3459" x="98.1844" y="28.2" width="67.3539" height="116.641" filterUnits="userSpaceOnUse" color-interpolation-filters="sRGB">
<feFlood flood-opacity="0" result="BackgroundImageFix"/>
<feBlend mode="normal" in="SourceGraphic" in2="BackgroundImageFix" result="shape"/>
<feGaussianBlur stdDeviation="3.65" result="effect1_foregroundBlur_567_3459"/>
</filter>
<filter id="filter13_f_567_3459" x="22" y="4.64941" width="169.293" height="160.306" filterUnits="userSpaceOnUse" color-interpolation-filters="sRGB">
<feFlood flood-opacity="0" result="BackgroundImageFix"/>
<feBlend mode="normal" in="SourceGraphic" in2="BackgroundImageFix" result="shape"/>
<feGaussianBlur stdDeviation="12.25" result="effect1_foregroundBlur_567_3459"/>
</filter>
<filter id="filter14_f_567_3459" x="40.5" y="23.1494" width="132.293" height="123.306" filterUnits="userSpaceOnUse" color-interpolation-filters="sRGB">
<feFlood flood-opacity="0" result="BackgroundImageFix"/>
<feBlend mode="normal" in="SourceGraphic" in2="BackgroundImageFix" result="shape"/>
<feGaussianBlur stdDeviation="3" result="effect1_foregroundBlur_567_3459"/>
</filter>
<filter id="filter15_f_567_3459" x="42.5" y="25.1494" width="128.293" height="119.306" filterUnits="userSpaceOnUse" color-interpolation-filters="sRGB">
<feFlood flood-opacity="0" result="BackgroundImageFix"/>
<feBlend mode="normal" in="SourceGraphic" in2="BackgroundImageFix" result="shape"/>
<feGaussianBlur stdDeviation="2" result="effect1_foregroundBlur_567_3459"/>
</filter>
<filter id="filter16_f_567_3459" x="43.5" y="26.1494" width="126.293" height="117.306" filterUnits="userSpaceOnUse" color-interpolation-filters="sRGB">
<feFlood flood-opacity="0" result="BackgroundImageFix"/>
<feBlend mode="normal" in="SourceGraphic" in2="BackgroundImageFix" result="shape"/>
<feGaussianBlur stdDeviation="2" result="effect1_foregroundBlur_567_3459"/>
</filter>
<filter id="filter17_f_567_3459" x="46" y="28.6494" width="121.293" height="112.306" filterUnits="userSpaceOnUse" color-interpolation-filters="sRGB">
<feFlood flood-opacity="0" result="BackgroundImageFix"/>
<feBlend mode="normal" in="SourceGraphic" in2="BackgroundImageFix" result="shape"/>
<feGaussianBlur stdDeviation="1" result="effect1_foregroundBlur_567_3459"/>
</filter>
<filter id="filter18_f_567_3459" x="45.5" y="28.1494" width="122.293" height="113.306" filterUnits="userSpaceOnUse" color-interpolation-filters="sRGB">
<feFlood flood-opacity="0" result="BackgroundImageFix"/>
<feBlend mode="normal" in="SourceGraphic" in2="BackgroundImageFix" result="shape"/>
<feGaussianBlur stdDeviation="1" result="effect1_foregroundBlur_567_3459"/>
</filter>
<filter id="filter19_f_567_3459" x="47.25" y="29.8994" width="118.793" height="109.806" filterUnits="userSpaceOnUse" color-interpolation-filters="sRGB">
<feFlood flood-opacity="0" result="BackgroundImageFix"/>
<feBlend mode="normal" in="SourceGraphic" in2="BackgroundImageFix" result="shape"/>
<feGaussianBlur stdDeviation="0.5" result="effect1_foregroundBlur_567_3459"/>
</filter>
<filter id="filter20_f_567_3459" x="47.375" y="30.0244" width="118.543" height="109.556" filterUnits="userSpaceOnUse" color-interpolation-filters="sRGB">
<feFlood flood-opacity="0" result="BackgroundImageFix"/>
<feBlend mode="normal" in="SourceGraphic" in2="BackgroundImageFix" result="shape"/>
<feGaussianBlur stdDeviation="0.5" result="effect1_foregroundBlur_567_3459"/>
</filter>
<linearGradient id="paint0_linear_567_3459" x1="143.003" y1="56" x2="112.503" y2="131.5" gradientUnits="userSpaceOnUse">
<stop offset="0.852542" stop-color="#054BBA"/>
<stop offset="1" stop-color="#054BBA" stop-opacity="0"/>
</linearGradient>
<radialGradient id="paint1_radial_567_3459" cx="0" cy="0" r="1" gradientUnits="userSpaceOnUse" gradientTransform="translate(143 46) rotate(131.409) scale(84.6655 87.8604)">
<stop offset="0.1" stop-color="#C3F7FF"/>
<stop offset="0.801344" stop-color="#C3F7FF"/>
<stop offset="1" stop-color="#C3F7FF" stop-opacity="0.4"/>
</radialGradient>
</defs>
</svg>
